<svg width="73" height="73" viewBox="0 0 73 73" fill="none" xmlns="http://www.w3.org/2000/svg">
    <path
        d="M18.25 0H42.3993C43.6093 0.000258408 44.7696 0.481119 45.625 1.33681L62.5382 18.25C63.3939 19.1054 63.8747 20.2657 63.875 21.4757V63.875C63.875 66.2951 62.9136 68.6161 61.2023 70.3273C59.4911 72.0386 57.1701 73 54.75 73H18.25C15.8299 73 13.5089 72.0386 11.7977 70.3273C10.0864 68.6161 9.125 66.2951 9.125 63.875V9.125C9.125 6.7049 10.0864 4.38392 11.7977 2.67265C13.5089 0.961381 15.8299 0 18.25 0V0ZM43.3438 6.84375V15.9688C43.3438 17.1788 43.8244 18.3393 44.6801 19.1949C45.5357 20.0506 46.6962 20.5312 47.9062 20.5312H57.0312L43.3438 6.84375Z"
        fill="#D9D9D9" />
</svg>